<svg xmlns="http://www.w3.org/2000/svg" xmlns:xlink="http://www.w3.org/1999/xlink" width="300" zoomAndPan="magnify" viewBox="0 0 224.87999 74.999997" height="100" preserveAspectRatio="xMidYMid meet" version="1.0"><defs><g/></defs><path fill="#3ecf00" d="M 73.394531 14.105469 C 58.019531 26.867188 63.90625 53.386719 69.109375 58.847656 C 77.085938 67.226562 152.601562 71.378906 161.992188 59.519531 C 171.378906 47.660156 166.464844 17.746094 155.203125 11.957031 C 143.9375 6.171875 81.988281 6.972656 73.394531 14.105469 Z M 73.394531 14.105469 " fill-opacity="1" fill-rule="nonzero"/><path fill="#3ecf00" d="M 184.890625 5.816406 C 184.121094 4.445312 182.375 3.71875 180.914062 4.503906 L 171.292969 9.671875 C 169.929688 10.402344 169.1875 12.210938 169.980469 13.648438 C 170.75 15.019531 172.496094 15.746094 173.960938 14.960938 L 183.585938 9.792969 C 184.949219 9.0625 185.691406 7.238281 184.890625 5.816406 Z M 184.890625 5.816406 " fill-opacity="1" fill-rule="nonzero"/><path fill="#3ecf00" d="M 191.828125 24.449219 C 191.507812 22.890625 190.070312 21.703125 188.4375 21.988281 L 176.5625 24.054688 C 175.039062 24.320312 173.78125 25.863281 174.105469 27.445312 C 174.429688 29.027344 175.863281 30.183594 177.496094 29.902344 L 189.367188 27.839844 C 190.894531 27.570312 192.152344 26.03125 191.828125 24.449219 Z M 191.828125 24.449219 " fill-opacity="1" fill-rule="nonzero"/><path fill="#3ecf00" d="M 183.347656 63.941406 L 174.519531 58.5 C 173.203125 57.6875 171.207031 58.183594 170.472656 59.5625 C 170.28125 59.90625 170.164062 60.269531 170.113281 60.65625 C 170.066406 61.046875 170.09375 61.429688 170.191406 61.804688 C 170.292969 62.183594 170.460938 62.527344 170.695312 62.839844 C 170.929688 63.152344 171.214844 63.410156 171.546875 63.613281 L 180.375 69.050781 C 181.695312 69.867188 183.691406 69.371094 184.425781 67.992188 C 184.613281 67.648438 184.734375 67.285156 184.78125 66.898438 C 184.828125 66.507812 184.804688 66.125 184.703125 65.75 C 184.601562 65.371094 184.4375 65.027344 184.203125 64.714844 C 183.96875 64.402344 183.683594 64.144531 183.347656 63.941406 Z M 183.347656 63.941406 " fill-opacity="1" fill-rule="nonzero"/><path fill="#3ecf00" d="M 59.265625 9.257812 L 54.421875 4.867188 C 53.273438 3.832031 51.351562 3.652344 50.234375 4.867188 C 49.195312 6.003906 49.007812 7.945312 50.234375 9.054688 L 55.082031 13.445312 C 56.226562 14.484375 58.148438 14.664062 59.265625 13.445312 C 60.308594 12.3125 60.492188 10.371094 59.265625 9.257812 Z M 59.265625 9.257812 " fill-opacity="1" fill-rule="nonzero"/><path fill="#3ecf00" d="M 52.433594 40.839844 C 52.363281 39.28125 51.128906 37.820312 49.472656 37.878906 C 44.6875 38.046875 39.945312 38.550781 35.234375 39.398438 C 33.703125 39.671875 32.691406 41.625 33.167969 43.039062 C 33.695312 44.683594 35.167969 45.398438 36.808594 45.109375 C 37.9375 44.910156 39.070312 44.726562 40.207031 44.5625 C 40.367188 44.539062 41.109375 44.421875 40.394531 44.535156 C 40.640625 44.5 40.886719 44.472656 41.128906 44.445312 C 41.699219 44.375 42.269531 44.308594 42.84375 44.25 C 45.046875 44.023438 47.257812 43.871094 49.472656 43.800781 C 51.019531 43.75 52.507812 42.476562 52.433594 40.839844 Z M 52.433594 40.839844 " fill-opacity="1" fill-rule="nonzero"/><path fill="#3ecf00" d="M 55.378906 55.828125 C 54.800781 55.253906 54.101562 54.964844 53.28125 54.960938 C 52.484375 55.007812 51.785156 55.296875 51.191406 55.828125 L 45.582031 60.277344 C 45.023438 60.714844 44.714844 61.699219 44.714844 62.367188 C 44.71875 63.183594 45.007812 63.882812 45.582031 64.460938 C 46.160156 65.03125 46.855469 65.320312 47.667969 65.324219 C 48.464844 65.277344 49.164062 64.988281 49.761719 64.457031 L 55.375 60.007812 C 55.925781 59.578125 56.242188 58.59375 56.242188 57.921875 C 56.238281 57.109375 55.949219 56.410156 55.378906 55.828125 Z M 55.378906 55.828125 " fill-opacity="1" fill-rule="nonzero"/><path fill="#3ecf00" d="M 47.910156 18.867188 L 38.507812 15.804688 C 37.035156 15.324219 35.210938 16.363281 34.871094 17.875 C 34.773438 18.25 34.75 18.632812 34.804688 19.019531 C 34.855469 19.40625 34.980469 19.769531 35.171875 20.109375 C 35.363281 20.449219 35.613281 20.738281 35.917969 20.980469 C 36.222656 21.226562 36.5625 21.402344 36.9375 21.511719 L 46.335938 24.578125 C 47.808594 25.058594 49.632812 24.019531 49.980469 22.511719 C 50.074219 22.132812 50.097656 21.75 50.042969 21.363281 C 49.992188 20.976562 49.867188 20.613281 49.675781 20.273438 C 49.484375 19.9375 49.234375 19.644531 48.929688 19.402344 C 48.625 19.15625 48.285156 18.980469 47.910156 18.867188 Z M 47.910156 18.867188 " fill-opacity="1" fill-rule="nonzero"/><path fill="#3ecf00" d="M 187.699219 43.816406 L 177.4375 41.347656 C 175.933594 40.988281 174.160156 41.824219 173.796875 43.414062 C 173.449219 44.941406 174.253906 46.671875 175.863281 47.058594 L 186.125 49.527344 C 187.628906 49.886719 189.40625 49.050781 189.769531 47.457031 C 190.113281 45.945312 189.3125 44.203125 187.699219 43.816406 Z M 187.699219 43.816406 " fill-opacity="1" fill-rule="nonzero"/><g fill="#ffffff" fill-opacity="1"><g transform="translate(66.116736, 49.358036)"><g><path d="M 6.421875 -16.5625 C 6.847656 -17.769531 7.566406 -18.613281 8.578125 -19.09375 C 9.554688 -19.570312 11.03125 -19.8125 13 -19.8125 L 13 -14.40625 C 11.082031 -14.40625 9.484375 -13.75 8.203125 -12.4375 C 7.015625 -11.28125 6.421875 -10.007812 6.421875 -8.625 L 6.421875 0 L 1.140625 0 L 1.140625 -19.46875 L 6.421875 -19.46875 Z M 6.421875 -16.5625 "/></g></g></g><g fill="#ffffff" fill-opacity="1"><g transform="translate(79.684865, 49.358036)"><g><path d="M 6.390625 -26.34375 L 6.390625 -21.890625 L 1.140625 -21.890625 L 1.140625 -26.34375 Z M 6.421875 -19.421875 L 6.421875 0 L 1.140625 0 L 1.140625 -19.421875 Z M 6.421875 -19.421875 "/></g></g></g><g fill="#ffffff" fill-opacity="1"><g transform="translate(87.243713, 49.358036)"><g><path d="M 10.8125 -19.390625 C 13.582031 -19.617188 15.875 -18.898438 17.6875 -17.234375 C 19.625 -15.441406 20.59375 -12.9375 20.59375 -9.71875 L 20.59375 0 L 15.6875 0 L 15.6875 -9.59375 L 15.640625 -9.59375 L 15.640625 -9.671875 C 15.640625 -11.003906 15.175781 -12.140625 14.25 -13.078125 C 13.3125 -14.003906 12.175781 -14.46875 10.84375 -14.46875 C 9.488281 -14.425781 8.359375 -13.953125 7.453125 -13.046875 C 6.492188 -12.085938 6.035156 -10.953125 6.078125 -9.640625 L 6.078125 -9.59375 L 6.046875 -9.59375 L 6.046875 0 L 0.75 0 L 0.75 -19.546875 L 6.046875 -19.546875 L 6.046875 -17.015625 C 7.234375 -18.421875 8.820312 -19.210938 10.8125 -19.390625 Z M 10.8125 -19.390625 "/></g></g></g><g fill="#ffffff" fill-opacity="1"><g transform="translate(108.597456, 49.358036)"><g><path d="M 15.640625 -19.5 L 20.59375 -19.5 L 20.59375 -0.03125 C 20.59375 2.632812 19.648438 4.910156 17.765625 6.796875 C 15.898438 8.691406 13.632812 9.648438 10.96875 9.671875 C 8.46875 9.703125 6.285156 8.882812 4.421875 7.21875 C 2.578125 5.601562 1.519531 3.578125 1.25 1.140625 L 6.234375 1.140625 C 6.410156 1.941406 6.835938 2.679688 7.515625 3.359375 C 8.453125 4.296875 9.585938 4.765625 10.921875 4.765625 C 12.253906 4.765625 13.375 4.285156 14.28125 3.328125 C 15.21875 2.390625 15.6875 1.269531 15.6875 -0.03125 L 15.640625 -1.96875 C 14.359375 -0.675781 12.800781 -0.03125 10.96875 -0.03125 C 8.269531 -0.0078125 5.960938 -0.941406 4.046875 -2.828125 C 2.128906 -4.722656 1.171875 -7.019531 1.171875 -9.71875 C 1.148438 -12.414062 2.082031 -14.707031 3.96875 -16.59375 C 5.851562 -18.507812 8.144531 -19.476562 10.84375 -19.5 C 12.988281 -19.5 14.585938 -18.832031 15.640625 -17.5 Z M 15.640625 -10.3125 C 15.546875 -11.425781 15.082031 -12.382812 14.25 -13.1875 C 13.289062 -14.09375 12.15625 -14.546875 10.84375 -14.546875 C 9.53125 -14.546875 8.410156 -14.082031 7.484375 -13.15625 C 6.546875 -12.164062 6.078125 -11.03125 6.078125 -9.75 C 6.078125 -8.4375 6.554688 -7.300781 7.515625 -6.34375 C 8.453125 -5.414062 9.585938 -4.953125 10.921875 -4.953125 C 12.285156 -5.003906 13.40625 -5.484375 14.28125 -6.390625 C 15.0625 -7.171875 15.515625 -8.101562 15.640625 -9.1875 Z M 15.640625 -10.3125 "/></g></g></g><g fill="#ffffff" fill-opacity="1"><g transform="translate(130.329149, 49.358036)"><g><path d="M 10.09375 -19.46875 C 12.789062 -19.488281 15.082031 -18.554688 16.96875 -16.671875 C 18.882812 -14.753906 19.84375 -12.460938 19.84375 -9.796875 C 19.863281 -7.097656 18.929688 -4.800781 17.046875 -2.90625 C 15.160156 -0.988281 12.878906 -0.0195312 10.203125 0 C 7.503906 0.0195312 5.195312 -0.910156 3.28125 -2.796875 C 1.375 -4.679688 0.421875 -6.972656 0.421875 -9.671875 C 0.390625 -12.367188 1.320312 -14.664062 3.21875 -16.5625 C 5.101562 -18.46875 7.394531 -19.4375 10.09375 -19.46875 Z M 13.53125 -6.34375 C 14.46875 -7.28125 14.9375 -8.414062 14.9375 -9.75 C 14.9375 -11.0625 14.457031 -12.195312 13.5 -13.15625 C 12.539062 -14.0625 11.40625 -14.515625 10.09375 -14.515625 C 8.78125 -14.515625 7.660156 -14.046875 6.734375 -13.109375 C 5.796875 -12.128906 5.328125 -11 5.328125 -9.71875 C 5.328125 -8.40625 5.804688 -7.269531 6.765625 -6.3125 C 7.703125 -5.375 8.835938 -4.90625 10.171875 -4.90625 C 11.523438 -4.957031 12.644531 -5.4375 13.53125 -6.34375 Z M 13.53125 -6.34375 "/></g></g></g><g fill="#ffffff" fill-opacity="1"><g transform="translate(150.58686, 49.358036)"><g><path d="M 1.140625 -28.46875 L 7.03125 -28.46875 L 7.03125 -8.8125 L 1.140625 -8.8125 Z M 1.140625 0 L 1.140625 -5.890625 L 7.03125 -5.890625 L 7.03125 0 Z M 1.140625 0 "/></g></g></g></svg>
